<svg width="25" height="24" viewBox="0 0 25 24" fill="none" xmlns="http://www.w3.org/2000/svg">
<path d="M18.6628 8.66544L9.8764 20.0279C9.47316 20.5439 8.87891 20.8341 8.24222 20.8449L4.74039 20.8879C4.54939 20.8879 4.39021 20.7589 4.34777 20.5761L3.5519 17.1255C3.41395 16.4912 3.5519 15.8355 3.95514 15.3303L10.1841 7.26797C10.2902 7.13898 10.4813 7.11855 10.6086 7.21422L13.2297 9.29967C13.3994 9.43942 13.6329 9.51467 13.877 9.48242C14.3969 9.41792 14.7471 8.94493 14.6941 8.43969C14.6622 8.1817 14.5349 7.96671 14.3651 7.80546C14.312 7.76246 11.8183 5.76301 11.8183 5.76301C11.6591 5.63401 11.6273 5.39752 11.7546 5.23735L12.7415 3.95706C13.6541 2.78534 15.2459 2.67784 16.5299 3.69906L18.0049 4.87078C18.6097 5.34377 19.013 5.96726 19.1509 6.62299C19.3101 7.3443 19.1403 8.0527 18.6628 8.66544Z" fill="white"/>
</svg>
