<svg width="220" height="70" viewBox="0 0 220 70" xmlns="http://www.w3.org/2000/svg">
  <!-- Background shape with gradient -->
  <rect x="10" y="10" width="200" height="50" rx="10" fill="url(#bgGradient)" />
  
  <!-- Card elements -->
  <rect x="25" y="20" width="40" height="30" rx="3" fill="white" opacity="0.9" transform="rotate(-8 25 20)" />
  <rect x="35" y="25" width="40" height="30" rx="3" fill="white" opacity="0.7" transform="rotate(-4 35 25)" />
  <rect x="45" y="22" width="40" height="30" rx="3" fill="white" opacity="0.8" transform="rotate(3 45 22)" />
  
  <!-- Text elements -->
  <text x="100" y="35" font-family="Poppins, sans-serif" font-size="18" font-weight="bold" fill="white">Card</text>
  <text x="100" y="55" font-family="Poppins, sans-serif" font-size="18" font-weight="bold" fill="#60efbc">Maker</text>
  
  <!-- Decorative elements -->
  <circle cx="30" cy="25" r="2" fill="#60efbc" opacity="0.8" />
  <circle cx="70" cy="45" r="2" fill="#60efbc" opacity="0.8" />
  <circle cx="50" cy="55" r="1.5" fill="#5374e7" opacity="0.8" />
  
  <!-- Sparkle elements -->
  <path d="M85 25 L87 27 L85 29 L83 27 Z" fill="#60efbc" opacity="0.9" />
  <path d="M75 42 L77 44 L75 46 L73 44 Z" fill="#5374e7" opacity="0.9" />
  
  <!-- Define gradients -->
  <defs>
    <linearGradient id="bgGradient" x1="0%" y1="0%" x2="100%" y2="100%">
      <stop offset="0%" stop-color="#0F1725" />
      <stop offset="100%" stop-color="#1a2438" />
    </linearGradient>
  </defs>
</svg> 